<?xml version="1.0" encoding="UTF-8"?>
<svg xmlns="http://www.w3.org/2000/svg" xmlns:xlink="http://www.w3.org/1999/xlink" width="137pt" height="138pt" viewBox="0 0 137 138" version="1.1">
<g id="surface1">
<path style=" stroke:none;fill-rule:evenodd;fill:rgb(0%,69.398499%,89.399719%);fill-opacity:1;" d="M 36.277344 11.609375 L 98.738281 11.609375 C 100.152344 11.609375 101.3125 12.765625 101.3125 14.179688 L 101.3125 75.242188 C 101.3125 76.660156 100.152344 77.816406 98.738281 77.816406 L 36.277344 77.816406 C 34.863281 77.816406 33.707031 76.660156 33.707031 75.242188 L 33.707031 14.179688 C 33.707031 12.765625 34.863281 11.609375 36.277344 11.609375 "/>
<path style=" stroke:none;fill-rule:evenodd;fill:rgb(13.699341%,12.199402%,12.5%);fill-opacity:1;" d="M 24.644531 87.140625 L 34.15625 87.230469 C 36.996094 87.257813 39.316406 89.28125 39.46875 92.511719 C 39.621094 95.738281 37.914063 99.269531 32.582031 99.449219 L 29.390625 99.453125 L 29.347656 105.832031 L 24.714844 105.832031 Z M 29.390625 90.730469 L 29.414063 95.917969 C 30.179688 95.976563 32.195313 95.890625 32.808594 95.882813 C 35.910156 95.847656 35.976563 90.804688 32.933594 90.730469 L 29.390625 90.730469 "/>
<path style=" stroke:none;fill-rule:evenodd;fill:rgb(13.699341%,12.199402%,12.5%);fill-opacity:1;" d="M 50.175781 87.007813 C 55.835938 87.007813 60.421875 91.449219 60.421875 96.925781 C 60.421875 102.398438 55.835938 106.839844 50.175781 106.839844 C 44.515625 106.839844 39.921875 102.398438 39.921875 96.925781 C 39.921875 91.449219 44.515625 87.007813 50.175781 87.007813 Z M 50.195313 90.730469 C 53.769531 90.730469 55.660156 93.503906 55.660156 96.925781 C 55.660156 100.34375 53.855469 103.03125 50.195313 103.117188 C 46.539063 103.207031 44.691406 100.34375 44.691406 96.925781 C 44.691406 93.503906 46.625 90.730469 50.195313 90.730469 "/>
<path style=" stroke:none;fill-rule:evenodd;fill:rgb(13.699341%,12.199402%,12.5%);fill-opacity:1;" d="M 103.113281 86.570313 C 108.773438 86.570313 113.363281 91.011719 113.363281 96.488281 C 113.363281 101.960938 108.773438 106.402344 103.113281 106.402344 C 97.457031 106.402344 92.863281 101.960938 92.863281 96.488281 C 92.863281 91.011719 97.457031 86.570313 103.113281 86.570313 Z M 103.136719 90.289063 C 106.710938 90.289063 108.601563 93.066406 108.601563 96.484375 C 108.601563 99.90625 106.796875 102.59375 103.136719 102.679688 C 99.476563 102.769531 97.628906 99.90625 97.628906 96.484375 C 97.628906 93.066406 99.566406 90.289063 103.136719 90.289063 "/>
<path style=" stroke:none;fill-rule:evenodd;fill:rgb(13.699341%,12.199402%,12.5%);fill-opacity:1;" d="M 61.621094 87.09375 L 71.132813 87.1875 C 73.972656 87.214844 76.289063 89.246094 76.441406 92.480469 C 76.550781 94.757813 75.734375 96.957031 73.382813 98.121094 L 73.40625 98.136719 L 79.570313 105.875 L 73.449219 105.832031 L 68.457031 98.980469 L 66.367188 98.996094 L 66.324219 105.832031 L 61.6875 105.832031 Z M 66.386719 90.644531 L 66.386719 95.867188 C 67.152344 95.925781 69.167969 95.902344 69.785156 95.898438 C 72.886719 95.859375 72.972656 90.722656 69.929688 90.644531 L 66.386719 90.644531 "/>
<path style=" stroke:none;fill-rule:evenodd;fill:rgb(13.699341%,12.199402%,12.5%);fill-opacity:1;" d="M 77.25 87.117188 L 93.640625 87.117188 L 93.640625 91.144531 L 87.828125 91.144531 L 87.828125 105.855469 L 83.105469 105.855469 L 83.105469 91.144531 L 77.25 91.144531 L 77.25 87.117188 "/>
<path style=" stroke:none;fill-rule:evenodd;fill:rgb(13.699341%,12.199402%,12.5%);fill-opacity:1;" d="M 103.792969 109.757813 C 108.558594 109.757813 112.425781 113.496094 112.425781 118.109375 C 112.425781 122.71875 108.558594 126.457031 103.792969 126.457031 C 99.027344 126.457031 95.164063 122.71875 95.164063 118.109375 C 95.164063 113.496094 99.027344 109.757813 103.792969 109.757813 Z M 103.8125 112.890625 C 106.820313 112.890625 108.414063 115.226563 108.414063 118.109375 C 108.414063 120.988281 106.894531 123.25 103.8125 123.324219 C 100.730469 123.398438 99.171875 120.988281 99.171875 118.109375 C 99.171875 115.226563 100.804688 112.890625 103.8125 112.890625 "/>
<path style=" stroke:none;fill-rule:evenodd;fill:rgb(13.699341%,12.199402%,12.5%);fill-opacity:1;" d="M 81.371094 109.859375 L 89.722656 109.9375 C 92.21875 109.960938 94.257813 111.746094 94.390625 114.589844 C 94.484375 116.589844 93.769531 118.523438 91.703125 119.546875 L 91.722656 119.558594 L 97.136719 126.355469 L 91.761719 126.316406 L 87.375 120.300781 L 85.539063 120.3125 L 85.503906 126.316406 L 81.433594 126.316406 Z M 85.558594 112.976563 L 85.558594 117.5625 C 86.230469 117.613281 88.003906 117.597656 88.542969 117.589844 C 91.265625 117.558594 91.34375 113.046875 88.667969 112.976563 L 85.558594 112.976563 "/>
<path style=" stroke:none;fill-rule:evenodd;fill:rgb(13.699341%,12.199402%,12.5%);fill-opacity:1;" d="M 34.535156 114.277344 L 36.0625 111.101563 C 36.0625 111.101563 32.304688 108.976563 28.589844 109.984375 C 24.875 110.992188 23.453125 115.894531 26.597656 118.0625 C 29.746094 120.226563 32.265625 119.757813 32.0625 121.652344 C 31.777344 124.359375 27.164063 122.59375 25.109375 121.671875 L 23.910156 124.957031 C 23.910156 124.957031 25.789063 126.136719 29.222656 126.464844 C 32.652344 126.796875 35.960938 124.914063 36.082031 121.5625 C 36.285156 115.929688 27.539063 117.152344 29.125 113.875 C 29.816406 112.445313 32.476563 113.28125 34.535156 114.277344 "/>
<path style=" stroke:none;fill-rule:evenodd;fill:rgb(13.699341%,12.199402%,12.5%);fill-opacity:1;" d="M 48.191406 110.25 L 48.191406 113.707031 L 41.765625 113.707031 L 41.765625 116.21875 L 47.621094 116.21875 L 47.621094 119.679688 L 41.765625 119.679688 L 41.765625 122.496094 L 48.671875 122.496094 L 48.671875 125.953125 L 37.65625 125.964844 L 37.65625 110.25 L 48.191406 110.25 "/>
<path style=" stroke:none;fill-rule:evenodd;fill:rgb(13.699341%,12.199402%,12.5%);fill-opacity:1;" d="M 62.132813 114.175781 C 56.746094 111.941406 53.308594 114.847656 52.972656 117.894531 C 52.65625 120.757813 55.105469 123.738281 60.230469 122.6875 L 60.210938 117.152344 L 64.230469 117.152344 L 64.210938 124.617188 C 57.589844 128.773438 48.863281 125.066406 49.082031 118.257813 C 49.375 109.046875 59.597656 108.746094 63.621094 111.066406 L 62.132813 114.175781 "/>
<path style=" stroke:none;fill-rule:evenodd;fill:rgb(13.699341%,12.199402%,12.5%);fill-opacity:1;" d="M 69.519531 109.90625 L 65.5 109.863281 L 65.5 119.582031 C 65.417969 124.152344 69.136719 126.363281 72.863281 126.351563 C 76.605469 126.34375 80.355469 124.097656 80.273438 119.582031 L 80.273438 109.863281 L 76.253906 109.90625 L 76.230469 119.382813 C 76.292969 121.703125 75.082031 122.777344 72.886719 122.777344 C 70.691406 122.777344 69.480469 121.703125 69.542969 119.382813 L 69.519531 109.90625 "/>
<path style=" stroke:none;fill-rule:evenodd;fill:rgb(100%,100%,100%);fill-opacity:1;" d="M 37.453125 15.894531 C 39.8125 15.78125 68.5 14.765625 84.964844 30.984375 C 84.964844 30.984375 71.894531 21.171875 42.417969 25.523438 C 40.953125 21.707031 39.25 18.503906 37.453125 15.894531 "/>
<path style=" stroke:none;fill-rule:evenodd;fill:rgb(100%,100%,100%);fill-opacity:1;" d="M 92.613281 41.765625 C 83.707031 31.6875 54.859375 36.625 45.96875 39.09375 C 45.410156 35.605469 44.664063 32.410156 43.78125 29.507813 C 50.210938 28.523438 86.933594 23.746094 92.613281 41.765625 "/>
<path style=" stroke:none;fill-rule:evenodd;fill:rgb(100%,100%,100%);fill-opacity:1;" d="M 46.570313 43.636719 C 53.574219 41.707031 93.09375 31.695313 97.050781 50.558594 C 84.589844 42.199219 54.839844 51.566406 47.015625 54.464844 C 47.089844 52.089844 47.042969 49.546875 46.851563 46.832031 C 46.777344 45.742188 46.675781 44.679688 46.570313 43.636719 "/>
<path style=" stroke:none;fill-rule:evenodd;fill:rgb(100%,100%,100%);fill-opacity:1;" d="M 46.628906 59.714844 C 63.484375 52.722656 115.976563 39.558594 92.992188 68.714844 C 97.953125 59.515625 95.101563 58.320313 88.363281 58.683594 C 75.496094 59.386719 48.953125 70.675781 42.429688 73.875 C 44.378906 70.296875 45.921875 65.628906 46.628906 59.714844 "/>
</g>
</svg>
