<?xml version="1.0" encoding="UTF-8"?>
<!DOCTYPE svg PUBLIC "-//W3C//DTD SVG 1.1//EN" "http://www.w3.org/Graphics/SVG/1.1/DTD/svg11.dtd">
<!-- Creator: CorelDRAW 2020 (64 Bit) -->
<svg xmlns="http://www.w3.org/2000/svg" xml:space="preserve" width="1748px" height="650px" version="1.1" style="shape-rendering:geometricPrecision; text-rendering:geometricPrecision; image-rendering:optimizeQuality; fill-rule:evenodd; clip-rule:evenodd"
viewBox="0 0 174800 64959"
 xmlns:xlink="http://www.w3.org/1999/xlink"
 xmlns:xodm="http://www.corel.com/coreldraw/odm/2003">
 <defs>
  <style type="text/css">
   <![CDATA[
    .fil0 {fill:none}
    .fil7 {fill:#373435}
    .fil1 {fill:#024E3F;fill-rule:nonzero}
    .fil2 {fill:url(#id0)}
    .fil4 {fill:url(#id1)}
    .fil5 {fill:url(#id2)}
    .fil6 {fill:url(#id3)}
    .fil3 {fill:url(#id4)}
   ]]>
  </style>
  <radialGradient id="id0" gradientUnits="userSpaceOnUse" gradientTransform="matrix(2.43452 2.43449 2.43452 -2.43448 -114317 1643)" cx="35806" cy="25859" r="27637" fx="35806" fy="25859">
   <stop offset="0" style="stop-opacity:1; stop-color:#FFF9F0"/>
   <stop offset="0.278431" style="stop-opacity:1; stop-color:#E1C16F"/>
   <stop offset="0.6" style="stop-opacity:1; stop-color:#C59738"/>
   <stop offset="0.8" style="stop-opacity:1; stop-color:#997337"/>
   <stop offset="1" style="stop-opacity:1; stop-color:#6E5630"/>
  </radialGradient>
  <radialGradient id="id1" gradientUnits="userSpaceOnUse" gradientTransform="matrix(6.8694 -0 -0 -6.86948 -117771 215134)" cx="20065" cy="27338" r="40565" fx="20065" fy="27338">
   <stop offset="0" style="stop-opacity:1; stop-color:#E2ECE9"/>
   <stop offset="0.180392" style="stop-opacity:1; stop-color:#90C1B5"/>
   <stop offset="0.419608" style="stop-opacity:1; stop-color:#45A591"/>
   <stop offset="0.6" style="stop-opacity:1; stop-color:#268065"/>
   <stop offset="0.8" style="stop-opacity:1; stop-color:#25614E"/>
   <stop offset="1" style="stop-opacity:1; stop-color:#234F41"/>
  </radialGradient>
  <radialGradient id="id2" gradientUnits="userSpaceOnUse" gradientTransform="matrix(5.36376 -0 -0 -5.40402 -89522 175145)" xlink:href="#id1" cx="20515" cy="27349" r="51565" fx="20515" fy="27349">
  </radialGradient>
  <radialGradient id="id3" gradientUnits="userSpaceOnUse" gradientTransform="matrix(6.74953 -0 -0 -6.83078 -121248 211387)" xlink:href="#id1" cx="21088" cy="26994" r="40367" fx="21088" fy="26994">
  </radialGradient>
  <radialGradient id="id4" gradientUnits="userSpaceOnUse" gradientTransform="matrix(3.70062 3.70058 3.70061 -3.70057 -172541 -23677)" cx="34054" cy="21773" r="27637" fx="34054" fy="21773">
   <stop offset="0" style="stop-opacity:1; stop-color:#FFF9F0"/>
   <stop offset="0.34902" style="stop-opacity:1; stop-color:#E1C16F"/>
   <stop offset="0.6" style="stop-opacity:1; stop-color:#C59738"/>
   <stop offset="0.8" style="stop-opacity:1; stop-color:#997337"/>
   <stop offset="1" style="stop-opacity:1; stop-color:#6E5630"/>
  </radialGradient>
 </defs>
 <g id="Camada_x0020_1">
  <metadata id="CorelCorpID_0Corel-Layer"/>
  <rect class="fil0" x="2266" y="899" width="170070" height="63202"/>
  <g id="_95572155824">
   <g>
    <path class="fil1" d="M9034 28831c0,0 1579,-1687 5934,2631 4353,4317 7954,8727 7954,8727 0,0 -5300,-20239 -2129,-18838 3171,1402 5722,4508 5722,4508l2385 -6134c0,0 -5491,-6755 -8918,-4859 0,0 -5923,4193 -4991,8885 0,0 -4160,-4059 -5454,-330 -1189,3429 -503,5410 -503,5410l0 0z"/>
    <path class="fil2" d="M35806 16130c-5373,0 -9728,4356 -9728,9729 0,5373 4355,9728 9728,9728 5372,0 9728,-4355 9728,-9728 0,-5373 -4356,-9729 -9728,-9729z"/>
    <path class="fil3" d="M35806 16130c-5373,0 -9728,4356 -9728,9729 0,5373 4355,9728 9728,9728 5372,0 9728,-4355 9728,-9728 0,-5373 -4356,-9729 -9728,-9729z"/>
    <path class="fil4" d="M16631 42260c-2736,-4841 -5260,-10211 -6310,-14405 -485,-1938 -579,-3664 -568,-4801 -1705,2840 -2686,6164 -2686,9717 0,71 2,141 3,212 1099,4144 3523,10682 8588,15635 1175,766 2440,1405 3776,1898l2753 782c723,147 1460,252 2211,315 -1601,-1045 -4496,-3561 -7767,-9353l0 0z"/>
    <path class="fil5" d="M33677 45452c-1921,-2179 -5480,-6606 -7703,-11146 -2101,-4293 -7399,-14827 -5383,-19663 -2329,691 -4472,1818 -6332,3288 -266,829 -462,2169 -46,4069 767,3503 4407,14757 9591,21478 2068,2681 4272,5581 6156,6838 433,289 850,490 1239,630 2245,-643 4319,-1693 6138,-3063 -339,-112 -703,-252 -1071,-429 -917,-437 -1875,-1191 -2589,-2002l0 0z"/>
    <path class="fil6" d="M42665 35587c-1652,-1511 -5901,-7289 -7143,-10705 -881,-2423 -2040,-5430 -1954,-7375 16,-377 86,-888 356,-1044 415,-237 473,-212 711,-270 55,-13 100,-17 201,-14 -2184,-1130 -4807,-2058 -7382,-2257 -495,717 -831,2106 -96,4793 1420,5191 4505,15058 11482,21971 0,0 1472,1805 3448,1645 1158,-1972 1969,-4173 2348,-6518 -671,272 -1382,312 -1971,-226l0 0z"/>
   </g>
   <g>
    <path class="fil7" d="M63062 20953l-63 0 -20 9c-189,88 -437,100 -673,100l-6143 0c-1,0 -161,-21 -161,-21 -141,-16 -273,-31 -395,-80l-16 -8 -129 0 -591 2022 199 0 24 -22c410,-383 1040,-597 1777,-597 0,0 1118,0 1271,0 0,172 0,6829 0,6829l2 207c2,77 2,156 2,238 0,634 -57,1382 -626,1600l-57 20 0 195 3233 0 0 -185 -43 -25c-747,-437 -759,-981 -759,-1797 0,-19 0,-6910 0,-7082 153,0 1301,0 1301,0 484,0 1059,63 1245,563l21 56 175 0 542 -2022 -116 0 0 0 0 0zm102510 33l-67 0 -21 10c-144,77 -334,74 -538,69l-146 -3 -5030 0 0 197 61 21c655,245 645,1174 639,1851l-4 207 0 5849 4 203c6,679 16,1606 -639,1840l-61 20 0 197 6592 0 755 -2208 -202 0 -24 21c-739,652 -1782,986 -2793,896 0,0 -1734,-168 -1881,-180 0,-150 0,-3345 0,-3507 150,0 1102,0 1102,0 462,-2 1036,-2 1250,389l25 45 187 0 0 -1823 -156 0 -18 9c-168,86 -409,86 -641,86 0,0 -1589,0 -1749,0 0,-162 0,-2576 0,-2721 481,-81 996,-96 1487,-96 658,0 1289,45 1755,586l27 33 176 0 0 -1991 -90 0 0 0 0 0zm-7843 76l-2806 0 0 186 45 26c745,424 758,966 758,1783 0,16 0,5256 0,5721 -297,-375 -5494,-6968 -5494,-6968l-213 -308c-109,-122 -164,-191 -220,-365l-21 -60 -64 -15 -2341 0 0 186 43 25c761,440 761,1013 761,1879l0 6190c0,866 0,1438 -776,1893l-43 25 0 185 2908 0 0 -185 -45 -25c-744,-437 -758,-981 -758,-1799 0,-17 0,-5376 0,-5842 294,374 5140,6546 5140,6546 656,857 1140,1408 2293,1799l119 39 0 -8826c0,-866 0,-1439 758,-1879l44 -25 0 -186 -88 0 0 0 0 0zm-12759 0l-3019 0 0 196 57 22c648,242 635,1118 625,1821l-4 237 0 5847 4 207c7,677 17,1605 -624,1838l-58 20 0 195 3109 0 0 -195 -55 -20c-643,-246 -633,-1166 -626,-1838l0 -6260c-7,-678 -17,-1607 626,-1852l55 -22 0 -196 -90 0 0 0 0 0zm-13067 0l-89 0 0 196 56 22c648,242 635,1118 625,1821l-2 237 0 5847 2 231c10,668 23,1581 -622,1814l-59 18 0 197 3124 0 0 -197 -56 -18c-584,-207 -639,-964 -639,-1603 0,-81 0,-158 0,-235l0 -207c0,0 0,-6724 0,-6872 374,-63 678,-100 966,-112 554,-25 1076,157 1430,498 308,293 472,687 472,1135 0,1512 -1628,1985 -2599,2130l-134 21 1496 2302c4,9 1888,2350 1888,2350 470,583 990,808 1860,808l1726 0 -259 -163c-956,-607 -1885,-1410 -2481,-2152 0,0 -1750,-2212 -2142,-2706 1211,-332 2394,-1364 2394,-2775 0,-1572 -1288,-2587 -3284,-2587l-3673 0 0 0 0 0zm-6708 1649c140,366 1301,3365 1386,3578 -226,0 -2559,0 -2785,0 83,-213 1257,-3213 1399,-3578l0 0zm1020 -1649l-2527 0 0 199 61 22c189,57 309,148 369,270 120,252 -33,637 -165,979l-27 75 -2580 6469c0,1 -85,219 -85,219 -297,791 -581,1541 -1372,1938l-48 22 0 190 3019 0 0 -195 -58 -21c-247,-93 -393,-204 -456,-348 -31,-65 -45,-140 -45,-225 0,-237 108,-547 242,-911 0,0 660,-1796 782,-2131 118,0 3656,0 3772,0 40,107 810,2131 810,2131l73 188c160,409 254,654 254,827 0,214 -144,312 -497,471l-52 24 0 190 3342 0 0 -186 -48 -26c-775,-397 -1071,-1143 -1384,-1933l-87 -224 -3235 -8014 -58 0 0 0 0 0zm-8257 0l-2760 0 0 104c0,311 -103,604 -227,930 0,2 -2338,5998 -2485,6376 -158,-375 -2819,-6641 -2819,-6641 0,-2 -45,-106 -45,-106 -81,-182 -163,-367 -163,-559l0 -88 -88 -16 -2788 0 0 188 44 24c595,325 519,809 452,1237l-19 115 -879 6502c0,-3 -13,79 -13,79 -118,807 -220,1505 -824,2038l-28 26 0 174 2693 0 0 -190 -54 -24c-414,-185 -531,-497 -531,-934 0,-247 37,-534 82,-861 0,0 767,-5832 845,-6416 231,548 2806,6697 2806,6697 387,901 618,1323 1389,1913l93 70c0,0 3137,-8060 3373,-8669 75,637 839,7127 839,7127 0,529 -100,920 -572,1069l-62 19 0 199 3154 0 0 -179 -36 -28c-584,-412 -660,-805 -751,-1521l-1020 -7615c0,-156 32,-706 416,-819l65 -21 0 -200 -87 0 0 0 0 0zm-25091 5022c0,-2350 1577,-3992 3834,-3992 2462,0 3788,2250 3788,4364 0,2322 -1544,3944 -3757,3944 -2387,0 -3865,-2240 -3865,-4316l0 0zm-324 -3638c-1039,1022 -1611,2361 -1611,3776 0,3120 2459,5474 5725,5474 3233,0 5768,-2440 5768,-5550 0,-1403 -552,-2724 -1556,-3728 -1054,-1051 -2494,-1628 -4059,-1622 -1628,-36 -3144,550 -4267,1650l0 0 0 0zm-3249 -1384l-3022 0 0 196 57 22c649,242 638,1118 624,1821l-1 237 0 5847 1 207c9,677 19,1605 -621,1838l-60 20 0 195 3110 0 0 -195 -58 -20c-640,-246 -630,-1166 -623,-1838l2 -207 0 -5847 -2 -206c-7,-679 -17,-1607 623,-1852l58 -22 0 -196 -88 0 0 0zm-9804 0l-3052 0 0 196 57 22c657,245 647,1166 639,1840l-2 200 0 5850 2 205c8,679 18,1607 -639,1855l-57 20 0 195 3140 0 0 -195 -57 -20c-657,-248 -648,-1176 -639,-1852l1 -207 0 -5851 -1 -200c-9,-677 -18,-1607 637,-1840l59 -21 0 -197 -88 0 0 0zm1932 0l-88 0 0 191 51 24c228,103 359,233 403,393 94,368 -286,880 -620,1330l-220 304 1 -4 -2062 2752 3467 4690c302,416 1050,703 1810,703l1540 0 0 -190 -52 -24c-816,-402 -1376,-843 -1819,-1431 0,0 -2714,-3582 -3073,-4057 81,-104 3614,-4665 3614,-4665l-181 -16 -2771 0 0 0 0 0zm-16085 5022c0,-2350 1577,-3992 3834,-3992 2460,0 3789,2250 3789,4364 0,2322 -1545,3944 -3757,3944 -2388,0 -3866,-2240 -3866,-4316l0 0zm-323 -3638c-1040,1022 -1614,2361 -1614,3776 0,3120 2463,5474 5725,5474 3236,0 5771,-2440 5771,-5550 0,-1403 -553,-2724 -1557,-3728 -1053,-1051 -2495,-1628 -4059,-1622 -1628,-36 -3143,550 -4266,1650l0 0 0 0z"/>
    <path class="fil7" d="M55858 39484c0,1829 1601,2547 3013,3183 1179,530 2294,1031 2294,2086 0,991 -1227,1519 -2113,1519 -1166,0 -2405,-475 -3317,-1265l-217 -188 524 2268 47 16c845,312 1784,472 2794,472 2331,0 4227,-1482 4227,-3303 0,-1601 -1596,-2334 -3005,-2981 -1184,-543 -2301,-1056 -2301,-1977 0,-972 1022,-1317 1896,-1317 872,0 1796,372 2355,948l160 165 0 -2051 -65 -21c-731,-228 -1513,-344 -2327,-344 -1829,0 -3965,730 -3965,2790l0 0 0 0zm75083 2479c0,-2344 1573,-3981 3824,-3981 2454,0 3779,2243 3779,4354 0,2317 -1542,3936 -3748,3936 -2381,0 -3855,-2238 -3855,-4309l0 0zm-333 -3637c-1041,1021 -1613,2361 -1613,3777 0,3119 2462,5472 5725,5472 3234,0 5769,-2437 5769,-5550 0,-1400 -553,-2725 -1556,-3728 -1053,-1052 -2495,-1626 -4060,-1619 -1628,-39 -3143,546 -4265,1648l0 0 0 0zm-9063 -80c2614,0 3993,1376 3993,3981 0,2799 -2197,3796 -4255,3796 -374,0 -711,-34 -1033,-96 0,-157 0,-7375 0,-7526 454,-103 881,-155 1294,-155l0 0 1 0zm-3641 -1305l-92 0 0 211 67 21c635,188 623,1055 613,1751l-2 235 0 5841 2 267c7,779 14,1394 -639,1842l-41 27 0 190 3794 0c3463,0 5878,-2173 5878,-5286 0,-3144 -2222,-5099 -5800,-5099l-3780 0 0 0zm38026 1670c148,385 1287,3327 1375,3554 -238,0 -2526,0 -2765,0 89,-227 1239,-3170 1390,-3554l0 0zm1018 -1670l-2531 0 0 210 66 21c187,59 308,147 366,269 118,248 -33,633 -165,971l-29 77 -2574 6460c-2,3 -85,223 -85,223 -257,679 -501,1330 -1071,1749 -830,-572 -1604,-1270 -2125,-1918 0,0 -1732,-2187 -2135,-2697 1208,-335 2387,-1365 2387,-2776 0,-1573 -1290,-2589 -3286,-2589l-3766 0 0 206 62 23c643,241 631,1114 620,1816l-3 235 0 5842 3 230c9,665 23,1577 -618,1803l-64 22 0 208 3133 0 0 -208 -62 -22c-578,-203 -633,-956 -633,-1593 0,-79 0,-159 1,-233l0 -207c0,0 0,-6704 0,-6861 369,-62 672,-99 961,-112 551,-25 1070,157 1424,497 306,292 468,684 468,1129 0,1508 -1622,1978 -2590,2123l-142 22 1497 2308c6,7 1888,2347 1888,2347 470,584 992,810 1861,810l3796 0 0 -205 -62 -23c-353,-135 -494,-302 -494,-571 0,-220 95,-509 240,-903 0,-2 671,-1824 781,-2126 123,0 3634,0 3757,0 44,114 810,2126 810,2126l74 188c159,414 254,658 254,827 0,210 -147,304 -495,461l-55 25 0 201 3349 0 0 -199 -52 -25c-772,-396 -1067,-1141 -1378,-1927l-89 -226 -3230 -8008 -64 0 0 0 0 0zm-45827 1670c149,385 1289,3327 1375,3554 -238,0 -2524,0 -2764,0 88,-227 1239,-3170 1389,-3554l0 0zm1020 -1670l-2532 0 0 210 67 21c187,59 305,147 364,269 119,248 -31,633 -164,971l-29 77 -2576 6460c0,3 -83,223 -83,223 -258,681 -504,1330 -1073,1749 -827,-572 -1601,-1270 -2124,-1918 0,0 -1733,-2187 -2136,-2697 1209,-335 2387,-1365 2387,-2776 0,-1573 -1289,-2589 -3285,-2589l-3764 0 0 206 59 23c645,241 632,1114 622,1816l-2 235 0 5842 2 230c10,665 23,1577 -619,1803l-62 22 0 208 3133 0 0 -208 -62 -22c-580,-203 -636,-956 -636,-1593 0,-79 1,-159 1,-233l3 -207c0,0 0,-6704 0,-6861 367,-62 672,-99 959,-112 551,-25 1070,157 1424,497 306,292 469,684 469,1129 0,1508 -1624,1978 -2589,2123l-145 22 1498 2308c6,7 1888,2347 1888,2347 471,584 993,810 1863,810l3795 0 0 -205 -61 -23c-355,-135 -495,-302 -495,-571 0,-220 94,-509 241,-903 0,-2 669,-1824 781,-2126 123,0 3634,0 3757,0 42,114 810,2126 810,2126l73 188c160,414 254,658 254,827 0,210 -146,304 -494,461l-55 25 0 201 3349 0 0 -199 -52 -25c-773,-396 -1067,-1141 -1378,-1927l-89 -226 -3232 -8008 -62 0 0 0 0 0zm-17313 0l-3026 0 0 206 61 22c639,245 629,1160 620,1831l-1 205 0 4735c0,520 1,863 -306,1284 -457,657 -1272,1048 -2176,1048 -1589,0 -2360,-960 -2360,-2930l0 -4137 -2 -205c-6,-671 -17,-1586 621,-1831l60 -22 0 -206 -3117 0 0 206 61 23c643,241 630,1145 619,1806l-2 229 0 4255c-1,1083 -1,2105 812,2999 647,708 1691,1116 2861,1116 949,0 2177,-304 2929,-1123 0,284 0,874 0,874l2454 0 0 -205 -60 -24c-653,-245 -643,-1162 -634,-1833l1 -201 0 -5842 -1 -208c-9,-675 -19,-1599 634,-1843l84 -32 -66 -197 -66 0 0 0 0 0zm-21618 5254c0,3268 2500,5380 6371,5380 1229,0 2390,-219 3618,-451l199 -37 -45 -108c-74,-173 -71,-376 -69,-573l0 -3652c0,-228 0,-462 70,-631l7 -17 0 -158 -2548 0 0 202 59 26c604,241 651,867 651,1661 0,0 0,2015 0,2156 -639,179 -1344,278 -2050,278 -2422,0 -4318,-1886 -4318,-4292 0,-2344 1705,-3982 4147,-3982 566,0 1957,87 2677,899l28 31 182 0 0 -1953 -74 -15c-843,-178 -1640,-265 -2442,-265 -3866,0 -6463,2210 -6463,5501l0 0 0 0zm-2543 -5332l-70 0 -21 13c-142,75 -333,73 -535,67l-145 -2 -5031 0 0 206 62 23c653,244 642,1168 634,1843l-1 208 0 5842 1 203c8,676 19,1601 -632,1830l-64 22 0 208 6594 0 758 -2217 -213 0 -26 22c-736,652 -1776,984 -2784,892 0,0 -1719,-163 -1873,-178 0,-159 0,-3320 0,-3493 157,0 1095,0 1095,0 458,0 1031,0 1244,386l26 47 195 0 0 -1830 -162 0 -20 10c-165,82 -405,82 -637,82 0,0 -1573,0 -1741,0 0,-170 0,-2552 0,-2703 478,-83 991,-98 1479,-98 657,0 1284,44 1749,586l29 33 181 0 0 -2002 -92 0 0 0 0 0z"/>
   </g>
  </g>
 </g>
</svg>
